<?xml version="1.0" encoding="UTF-8"?>
<!DOCTYPE svg PUBLIC "-//W3C//DTD SVG 1.1//EN" "http://www.w3.org/Graphics/SVG/1.1/DTD/svg11.dtd">
<svg xmlns="http://www.w3.org/2000/svg" version="1.1" width="180px" height="180px" style="shape-rendering:geometricPrecision; text-rendering:geometricPrecision; image-rendering:optimizeQuality; fill-rule:evenodd; clip-rule:evenodd" xmlns:xlink="http://www.w3.org/1999/xlink">
<g><path style="opacity:1" fill="#f39895" d="M 173.5,37.5 C 173.5,48.8333 173.5,60.1667 173.5,71.5C 172.539,69.7354 172.205,67.7354 172.5,65.5C 172.832,56.4754 172.498,47.4754 171.5,38.5C 169.851,37.3523 168.351,36.019 167,34.5C 166.586,34.9574 166.086,35.2907 165.5,35.5C 161.889,34.7382 158.222,34.2382 154.5,34C 153.62,32.6439 153.286,31.1439 153.5,29.5C 154.63,27.6854 155.296,25.6854 155.5,23.5C 166.851,20.8201 172.851,25.4868 173.5,37.5 Z"/></g>
<g><path style="opacity:0.998" fill="#3d0a43" d="M 179.5,27.5 C 179.5,61.5 179.5,95.5 179.5,129.5C 177.195,144.115 169.862,155.448 157.5,163.5C 157.719,162.325 157.386,161.325 156.5,160.5C 155.167,161.167 153.833,161.833 152.5,162.5C 149.784,160.48 146.784,160.146 143.5,161.5C 164.306,154.936 173.972,140.603 172.5,118.5C 172.5,115.833 172.5,113.167 172.5,110.5C 172.5,108.833 172.5,107.167 172.5,105.5C 173.488,100.36 173.821,95.0262 173.5,89.5C 173.5,83.5 173.5,77.5 173.5,71.5C 173.5,60.1667 173.5,48.8333 173.5,37.5C 175.141,36.1295 176.141,34.2961 176.5,32C 174.596,27.7598 172.263,23.7598 169.5,20C 163.148,17.5586 156.815,16.392 150.5,16.5C 157.091,14.2326 163.757,14.0659 170.5,16C 174.594,19.0449 177.594,22.8782 179.5,27.5 Z"/></g>
<g><path style="opacity:1" fill="#812c4d" d="M 155.5,23.5 C 155.296,25.6854 154.63,27.6854 153.5,29.5C 150.086,35.9969 146.419,42.3303 142.5,48.5C 143.321,45.4465 143.321,42.4465 142.5,39.5C 139.716,37.5066 137.049,35.5066 134.5,33.5C 140.337,27.8795 147.337,24.5461 155.5,23.5 Z"/></g>
<g><path style="opacity:0.968" fill="#360641" d="M 114.5,39.5 C 115.043,39.56 115.376,39.8933 115.5,40.5C 114.588,43.5589 113.088,46.2256 111,48.5C 110.592,46.5904 109.425,45.5904 107.5,45.5C 94.7823,45.3728 81.949,45.3728 69,45.5C 67.1118,45.204 65.2784,44.704 63.5,44C 56.1081,38.9741 49.1081,33.4741 42.5,27.5C 32.2,21.1638 21.2,19.8304 9.5,23.5C 7.5,26.1667 5.5,28.8333 3.5,31.5C 4.42789,32.7678 4.59456,34.1011 4,35.5C 3.33333,32.8333 2.66667,32.8333 2,35.5C 1.66667,38.8333 1.33333,42.1667 1,45.5C 0.721579,44.5842 0.221579,43.9175 -0.5,43.5C -0.5,40.1667 -0.5,36.8333 -0.5,33.5C 3.34106,15.7405 14.0077,10.2405 31.5,17C 44.6975,24.0954 57.0308,32.4287 68.5,42C 75.6566,42.124 82.8232,41.9573 90,41.5C 96.7916,41.4157 103.458,42.0824 110,43.5C 111.371,41.9586 112.871,40.6253 114.5,39.5 Z"/></g>
<g><path style="opacity:1" fill="#6d1946" d="M 134.5,33.5 C 137.049,35.5066 139.716,37.5066 142.5,39.5C 143.321,42.4465 143.321,45.4465 142.5,48.5C 140.724,52.3934 138.724,56.0601 136.5,59.5C 135.833,59.5 135.167,59.5 134.5,59.5C 133.508,59.6716 132.842,59.3382 132.5,58.5C 133.833,58.5 135.167,58.5 136.5,58.5C 137.234,50.9462 133.901,46.6129 126.5,45.5C 126.5,43.5 126.5,41.5 126.5,39.5C 128.86,37.1468 131.527,35.1468 134.5,33.5 Z"/></g>
<g><path style="opacity:1" fill="#681845" d="M 46.5,34.5 C 53.0085,39.5021 59.6752,44.3354 66.5,49C 70.1516,49.4986 73.8183,49.6653 77.5,49.5C 70.9202,50.7858 64.2536,52.2858 57.5,54C 53.7708,54.8445 50.4374,56.3445 47.5,58.5C 45.8828,59.038 44.2161,59.3713 42.5,59.5C 40.1961,54.8501 37.8627,50.1835 35.5,45.5C 34.3059,38.0263 37.3059,35.0263 44.5,36.5C 45.5223,36.1445 46.189,35.4778 46.5,34.5 Z"/></g>
<g><path style="opacity:1" fill="#f77d79" d="M 153.5,29.5 C 153.286,31.1439 153.62,32.6439 154.5,34C 158.222,34.2382 161.889,34.7382 165.5,35.5C 166.086,35.2907 166.586,34.9574 167,34.5C 168.351,36.019 169.851,37.3523 171.5,38.5C 172.498,47.4754 172.832,56.4754 172.5,65.5C 171.768,66.8083 170.934,68.1416 170,69.5C 169.333,68.1667 168.667,68.1667 168,69.5C 167.523,74.598 166.356,79.2647 164.5,83.5C 165.887,76.5761 166.554,69.5761 166.5,62.5C 158.757,61.8701 151.424,62.5367 144.5,64.5C 142.264,62.0943 139.597,60.4276 136.5,59.5C 138.724,56.0601 140.724,52.3934 142.5,48.5C 146.419,42.3303 150.086,35.9969 153.5,29.5 Z"/></g>
<g><path style="opacity:1" fill="#5e1444" d="M 126.5,39.5 C 126.5,41.5 126.5,43.5 126.5,45.5C 133.901,46.6129 137.234,50.9462 136.5,58.5C 135.167,58.5 133.833,58.5 132.5,58.5C 122.303,54.7043 111.97,51.7043 101.5,49.5C 104.884,49.3396 108.217,49.673 111.5,50.5C 116.381,46.5705 121.381,42.9039 126.5,39.5 Z"/></g>
<g><path style="opacity:1" fill="#fbd5a3" d="M 77.5,49.5 C 85.5,49.5 93.5,49.5 101.5,49.5C 111.97,51.7043 122.303,54.7043 132.5,58.5C 132.842,59.3382 133.508,59.6716 134.5,59.5C 138.402,61.7282 141.735,64.7282 144.5,68.5C 145.078,71.3687 146.078,74.0353 147.5,76.5C 147.167,76.8333 146.833,77.1667 146.5,77.5C 144.5,76.1667 142.5,74.8333 140.5,73.5C 140.167,73.8333 139.833,74.1667 139.5,74.5C 142.764,76.4231 145.764,78.7565 148.5,81.5C 148.333,81.8333 148.167,82.1667 148,82.5C 146.512,80.84 144.679,79.84 142.5,79.5C 139.766,77.5576 136.766,76.0576 133.5,75C 131.5,74.3333 129.5,74.3333 127.5,75C 126.058,78.6081 124.391,82.1081 122.5,85.5C 121.662,85.8417 121.328,86.5084 121.5,87.5C 100.618,110.002 79.6177,110.002 58.5,87.5C 57.4706,85.4832 56.4706,83.4832 55.5,81.5C 54.5647,74.5266 50.8981,72.6932 44.5,76C 31.3368,81.0074 20.6702,89.1741 12.5,100.5C 11.2519,101.04 10.0852,101.707 9,102.5C 8.53566,101.906 8.36899,101.239 8.5,100.5C 8.5,99.1667 8.5,97.8333 8.5,96.5C 9.55198,96.6495 10.552,96.4828 11.5,96C 14.6595,91.8412 18.1595,88.0079 22,84.5C 22.8624,82.913 23.5291,81.2464 24,79.5C 30.5513,76.4518 34.718,71.4518 36.5,64.5C 38.5,63.8333 40.5,63.1667 42.5,62.5C 44.2012,61.1653 45.8679,59.832 47.5,58.5C 50.4374,56.3445 53.7708,54.8445 57.5,54C 64.2536,52.2858 70.9202,50.7858 77.5,49.5 Z"/></g>
<g><path style="opacity:1" fill="#f77a78" d="M 34.5,45.5 C 34.8333,45.5 35.1667,45.5 35.5,45.5C 37.8627,50.1835 40.1961,54.8501 42.5,59.5C 42.3893,60.1174 42.056,60.6174 41.5,61C 39.5273,61.4955 37.5273,61.6621 35.5,61.5C 35.7373,62.791 35.404,63.791 34.5,64.5C 34.4226,63.2502 33.756,62.4169 32.5,62C 26.8333,61.3333 21.1667,61.3333 15.5,62C 14.5838,62.3742 13.7504,62.8742 13,63.5C 12.5034,65.8098 12.3367,68.1432 12.5,70.5C 10.4862,70.6085 8.81953,69.9418 7.5,68.5C 7.5,62.5 7.5,56.5 7.5,50.5C 8.53816,48.4281 10.0382,46.7615 12,45.5C 14.1849,46.7585 16.3516,46.7585 18.5,45.5C 23.5859,48.0116 28.4192,47.6783 33,44.5C 33.3826,45.056 33.8826,45.3893 34.5,45.5 Z"/></g>
<g><path style="opacity:1" fill="#aa5a6a" d="M 8.5,29.5 C 8.5,31.8333 8.5,34.1667 8.5,36.5C 7.55896,41.0704 7.22562,45.737 7.5,50.5C 7.5,56.5 7.5,62.5 7.5,68.5C 7.5,75.8333 7.5,83.1667 7.5,90.5C 7.5,93.8333 7.5,97.1667 7.5,100.5C 7.5,103.167 7.5,105.833 7.5,108.5C 6.33668,83.67 6.17001,58.67 7,33.5C 7.21003,31.9419 7.71003,30.6085 8.5,29.5 Z"/></g>
<g><path style="opacity:1" fill="#d35d60" d="M 164.5,83.5 C 163.833,83.5 163.167,83.5 162.5,83.5C 157.54,79.7118 152.707,75.7118 148,71.5C 147.102,68.9309 145.935,66.5976 144.5,64.5C 151.424,62.5367 158.757,61.8701 166.5,62.5C 166.554,69.5761 165.887,76.5761 164.5,83.5 Z"/></g>
<g><path style="opacity:1" fill="#d35d61" d="M 34.5,64.5 C 33.6799,66.1401 32.8466,67.8068 32,69.5C 28.7803,72.6477 25.6136,75.6477 22.5,78.5C 20.8439,79.1465 19.1772,79.8131 17.5,80.5C 16.8333,80.1667 16.1667,79.8333 15.5,79.5C 14.0473,76.5753 13.0473,73.5753 12.5,70.5C 12.3367,68.1432 12.5034,65.8098 13,63.5C 13.7504,62.8742 14.5838,62.3742 15.5,62C 21.1667,61.3333 26.8333,61.3333 32.5,62C 33.756,62.4169 34.4226,63.2502 34.5,64.5 Z"/></g>
<g><path style="opacity:1" fill="#f08a6a" d="M 172.5,65.5 C 172.205,67.7354 172.539,69.7354 173.5,71.5C 173.5,77.5 173.5,83.5 173.5,89.5C 171.806,90.686 170.139,90.5193 168.5,89C 166.237,87.383 164.237,85.5497 162.5,83.5C 163.167,83.5 163.833,83.5 164.5,83.5C 166.356,79.2647 167.523,74.598 168,69.5C 168.667,68.1667 169.333,68.1667 170,69.5C 170.934,68.1416 171.768,66.8083 172.5,65.5 Z"/></g>
<g><path style="opacity:1" fill="#ec826b" d="M 7.5,68.5 C 8.81953,69.9418 10.4862,70.6085 12.5,70.5C 13.0473,73.5753 14.0473,76.5753 15.5,79.5C 16.1667,79.8333 16.8333,80.1667 17.5,80.5C 19.1772,79.8131 20.8439,79.1465 22.5,78.5C 21.3747,80.1288 20.0414,81.6288 18.5,83C 14.6374,85.3886 10.9708,87.8886 7.5,90.5C 7.5,83.1667 7.5,75.8333 7.5,68.5 Z"/></g>
<g><path style="opacity:1" fill="#fad5b2" d="M 55.5,81.5 C 54.8444,80.7222 54.0111,80.0556 53,79.5C 45.5773,81.6259 38.4106,84.4592 31.5,88C 28.5199,90.8246 25.1866,93.158 21.5,95C 17.6545,99.3449 13.6545,103.512 9.5,107.5C 8.51078,111.107 8.17744,114.774 8.5,118.5C 8.5,119.833 8.5,121.167 8.5,122.5C 7.51388,118.03 7.18054,113.363 7.5,108.5C 7.5,105.833 7.5,103.167 7.5,100.5C 7.83333,100.5 8.16667,100.5 8.5,100.5C 8.36899,101.239 8.53566,101.906 9,102.5C 10.0852,101.707 11.2519,101.04 12.5,100.5C 20.6702,89.1741 31.3368,81.0074 44.5,76C 50.8981,72.6932 54.5647,74.5266 55.5,81.5 Z"/></g>
<g><path style="opacity:1" fill="#f9c29c" d="M 134.5,59.5 C 135.167,59.5 135.833,59.5 136.5,59.5C 139.597,60.4276 142.264,62.0943 144.5,64.5C 145.935,66.5976 147.102,68.9309 148,71.5C 152.707,75.7118 157.54,79.7118 162.5,83.5C 164.237,85.5497 166.237,87.383 168.5,89C 170.139,90.5193 171.806,90.686 173.5,89.5C 173.821,95.0262 173.488,100.36 172.5,105.5C 170.629,105.141 169.129,104.141 168,102.5C 162.199,94.0195 154.699,87.5195 145.5,83C 144.449,81.6152 143.116,80.6152 141.5,80C 141.728,79.6012 142.062,79.4346 142.5,79.5C 144.679,79.84 146.512,80.84 148,82.5C 148.167,82.1667 148.333,81.8333 148.5,81.5C 145.764,78.7565 142.764,76.4231 139.5,74.5C 139.833,74.1667 140.167,73.8333 140.5,73.5C 142.5,74.8333 144.5,76.1667 146.5,77.5C 146.833,77.1667 147.167,76.8333 147.5,76.5C 146.078,74.0353 145.078,71.3687 144.5,68.5C 141.735,64.7282 138.402,61.7282 134.5,59.5 Z"/></g>
<g><path style="opacity:1" fill="#fafaed" d="M 58.5,87.5 C 79.6177,110.002 100.618,110.002 121.5,87.5C 135.648,90.0139 147.314,96.6806 156.5,107.5C 157.768,108.787 157.435,109.787 155.5,110.5C 156.803,112.377 158.303,114.043 160,115.5C 160.49,116.793 160.657,118.127 160.5,119.5C 159.5,119.5 158.5,119.5 157.5,119.5C 157.663,121.857 157.497,124.19 157,126.5C 155.989,127.337 154.822,127.67 153.5,127.5C 153.786,129.277 154.453,130.944 155.5,132.5C 153.47,134.878 152.47,134.211 152.5,130.5C 151.5,130.5 150.5,130.5 149.5,130.5C 150.811,133.154 152.145,135.821 153.5,138.5C 151.99,137.164 150.323,135.997 148.5,135C 145.008,135.07 142.008,134.237 139.5,132.5C 145.971,121.763 144.305,112.43 134.5,104.5C 130.558,103.4 126.558,103.233 122.5,104C 113.444,111.019 111.11,119.852 115.5,130.5C 114.167,130.5 112.833,130.5 111.5,130.5C 111.5,135.5 111.5,140.5 111.5,145.5C 112.833,145.5 114.167,145.5 115.5,145.5C 115.5,146.833 115.5,148.167 115.5,149.5C 112.26,149.768 109.094,150.434 106,151.5C 104.208,150.963 102.375,150.63 100.5,150.5C 89.1384,153.332 77.8051,153.165 66.5,150C 65.6198,148.644 65.2865,147.144 65.5,145.5C 66.8333,145.5 68.1667,145.5 69.5,145.5C 69.1667,142.5 70.5,141.167 73.5,141.5C 73.5,140.5 73.5,139.5 73.5,138.5C 72.1779,138.67 71.0113,138.337 70,137.5C 70.3647,132.892 69.0314,131.892 66,134.5C 62.6328,141.028 57.4662,145.695 50.5,148.5C 45.8289,147.027 41.1622,146.027 36.5,145.5C 40.4629,145.911 44.1295,145.078 47.5,143C 48.8333,141.333 48.8333,139.667 47.5,138C 43.6202,135.137 39.2868,133.97 34.5,134.5C 35.999,132.836 36.999,130.836 37.5,128.5C 36.7579,127.713 35.9246,127.047 35,126.5C 31.8349,126.83 28.6682,126.997 25.5,127C 24.6634,125.989 24.33,124.822 24.5,123.5C 23.5,123.5 22.5,123.5 21.5,123.5C 21.5,124.5 21.5,125.5 21.5,126.5C 20.1667,126.5 18.8333,126.5 17.5,126.5C 17.8921,123.052 17.2254,119.886 15.5,117C 16.1476,115.56 16.4809,114.06 16.5,112.5C 16.9081,111.357 17.5748,110.357 18.5,109.5C 24.9995,104.827 31.3328,99.994 37.5,95C 44.1989,91.4166 51.1989,88.9166 58.5,87.5 Z"/></g>
<g><path style="opacity:1" fill="#fce9cc" d="M 55.5,81.5 C 56.4706,83.4832 57.4706,85.4832 58.5,87.5C 51.1989,88.9166 44.1989,91.4166 37.5,95C 31.3328,99.994 24.9995,104.827 18.5,109.5C 17.5748,110.357 16.9081,111.357 16.5,112.5C 13.8333,114.5 11.1667,116.5 8.5,118.5C 8.17744,114.774 8.51078,111.107 9.5,107.5C 13.6545,103.512 17.6545,99.3449 21.5,95C 25.1866,93.158 28.5199,90.8246 31.5,88C 38.4106,84.4592 45.5773,81.6259 53,79.5C 54.0111,80.0556 54.8444,80.7222 55.5,81.5 Z"/></g>
<g><path style="opacity:1" fill="#f7b290" d="M 47.5,58.5 C 45.8679,59.832 44.2012,61.1653 42.5,62.5C 40.5,63.1667 38.5,63.8333 36.5,64.5C 34.718,71.4518 30.5513,76.4518 24,79.5C 23.5291,81.2464 22.8624,82.913 22,84.5C 18.1595,88.0079 14.6595,91.8412 11.5,96C 10.552,96.4828 9.55198,96.6495 8.5,96.5C 8.5,97.8333 8.5,99.1667 8.5,100.5C 8.16667,100.5 7.83333,100.5 7.5,100.5C 7.5,97.1667 7.5,93.8333 7.5,90.5C 10.9708,87.8886 14.6374,85.3886 18.5,83C 20.0414,81.6288 21.3747,80.1288 22.5,78.5C 25.6136,75.6477 28.7803,72.6477 32,69.5C 32.8466,67.8068 33.6799,66.1401 34.5,64.5C 35.404,63.791 35.7373,62.791 35.5,61.5C 37.5273,61.6621 39.5273,61.4955 41.5,61C 42.056,60.6174 42.3893,60.1174 42.5,59.5C 44.2161,59.3713 45.8828,59.038 47.5,58.5 Z"/></g>
<g><path style="opacity:1" fill="#fcebd0" d="M 172.5,110.5 C 172.5,113.167 172.5,115.833 172.5,118.5C 171.448,118.649 170.448,118.483 169.5,118C 165.933,115.055 162.6,111.889 159.5,108.5C 158.583,107.873 157.583,107.539 156.5,107.5C 147.314,96.6806 135.648,90.0139 121.5,87.5C 121.328,86.5084 121.662,85.8417 122.5,85.5C 123.756,83.6561 125.423,82.3228 127.5,81.5C 144.19,85.6755 157.524,94.8422 167.5,109C 169.025,110.009 170.692,110.509 172.5,110.5 Z"/></g>
<g><path style="opacity:1" fill="#fcd8b6" d="M 142.5,79.5 C 142.062,79.4346 141.728,79.6012 141.5,80C 143.116,80.6152 144.449,81.6152 145.5,83C 154.699,87.5195 162.199,94.0195 168,102.5C 169.129,104.141 170.629,105.141 172.5,105.5C 172.5,107.167 172.5,108.833 172.5,110.5C 170.692,110.509 169.025,110.009 167.5,109C 157.524,94.8422 144.19,85.6755 127.5,81.5C 125.423,82.3228 123.756,83.6561 122.5,85.5C 124.391,82.1081 126.058,78.6081 127.5,75C 129.5,74.3333 131.5,74.3333 133.5,75C 136.766,76.0576 139.766,77.5576 142.5,79.5 Z"/></g>
<g><path style="opacity:1" fill="#fbfae7" d="M 156.5,107.5 C 157.583,107.539 158.583,107.873 159.5,108.5C 162.6,111.889 165.933,115.055 169.5,118C 170.448,118.483 171.448,118.649 172.5,118.5C 173.972,140.603 164.306,154.936 143.5,161.5C 107.137,168.333 70.8036,168.166 34.5,161C 16.989,154.146 8.32232,141.313 8.5,122.5C 8.5,121.167 8.5,119.833 8.5,118.5C 11.1667,116.5 13.8333,114.5 16.5,112.5C 16.4809,114.06 16.1476,115.56 15.5,117C 17.2254,119.886 17.8921,123.052 17.5,126.5C 18.8333,126.5 20.1667,126.5 21.5,126.5C 21.5,125.5 21.5,124.5 21.5,123.5C 22.5,123.5 23.5,123.5 24.5,123.5C 24.33,124.822 24.6634,125.989 25.5,127C 28.6682,126.997 31.8349,126.83 35,126.5C 35.9246,127.047 36.7579,127.713 37.5,128.5C 36.999,130.836 35.999,132.836 34.5,134.5C 29.297,136.352 28.297,139.518 31.5,144C 33.0249,145.009 34.6916,145.509 36.5,145.5C 41.1622,146.027 45.8289,147.027 50.5,148.5C 57.4662,145.695 62.6328,141.028 66,134.5C 69.0314,131.892 70.3647,132.892 70,137.5C 71.0113,138.337 72.1779,138.67 73.5,138.5C 73.5,139.5 73.5,140.5 73.5,141.5C 70.5,141.167 69.1667,142.5 69.5,145.5C 68.1667,145.5 66.8333,145.5 65.5,145.5C 65.2865,147.144 65.6198,148.644 66.5,150C 77.8051,153.165 89.1384,153.332 100.5,150.5C 102.375,150.63 104.208,150.963 106,151.5C 109.094,150.434 112.26,149.768 115.5,149.5C 115.5,148.167 115.5,146.833 115.5,145.5C 114.167,145.5 112.833,145.5 111.5,145.5C 111.5,140.5 111.5,135.5 111.5,130.5C 112.833,130.5 114.167,130.5 115.5,130.5C 117.592,133.723 120.592,135.723 124.5,136.5C 127.305,137.319 130.305,137.819 133.5,138C 134.399,143.731 137.733,146.231 143.5,145.5C 149.476,146.538 152.809,144.205 153.5,138.5C 152.145,135.821 150.811,133.154 149.5,130.5C 150.5,130.5 151.5,130.5 152.5,130.5C 152.47,134.211 153.47,134.878 155.5,132.5C 154.453,130.944 153.786,129.277 153.5,127.5C 154.822,127.67 155.989,127.337 157,126.5C 157.497,124.19 157.663,121.857 157.5,119.5C 158.5,119.5 159.5,119.5 160.5,119.5C 160.657,118.127 160.49,116.793 160,115.5C 158.303,114.043 156.803,112.377 155.5,110.5C 157.435,109.787 157.768,108.787 156.5,107.5 Z"/></g>
<g><path style="opacity:1" fill="#400946" d="M 139.5,132.5 C 135.236,136.111 130.236,137.445 124.5,136.5C 120.592,135.723 117.592,133.723 115.5,130.5C 111.11,119.852 113.444,111.019 122.5,104C 126.558,103.233 130.558,103.4 134.5,104.5C 144.305,112.43 145.971,121.763 139.5,132.5 Z"/></g>
<g><path style="opacity:1" fill="#ededf1" d="M 133.5,116.5 C 130.358,118.661 127.025,118.994 123.5,117.5C 120.914,114.994 120.914,112.494 123.5,110C 126.833,109.333 130.167,109.333 133.5,110C 136.134,112.293 136.134,114.46 133.5,116.5 Z"/></g>
<g><path style="opacity:1" fill="#410b47" d="M 47.5,103.5 C 66.0978,104.036 72.2644,113.036 66,130.5C 57.6199,139.821 49.2866,139.821 41,130.5C 35.8298,119.468 37.9965,110.468 47.5,103.5 Z"/></g>
<g><path style="opacity:1" fill="#efeff2" d="M 57.5,117.5 C 53.9749,118.994 50.6415,118.661 47.5,116.5C 45.7519,111.236 47.7519,108.903 53.5,109.5C 58.5086,108.679 60.6753,110.679 60,115.5C 59.2917,116.381 58.4584,117.047 57.5,117.5 Z"/></g>
<g><path style="opacity:1" fill="#755e8d" d="M 47.5,116.5 C 50.6415,118.661 53.9749,118.994 57.5,117.5C 61.3291,123.732 59.4958,126.732 52,126.5C 46.4209,126.591 44.0876,123.924 45,118.5C 45.7083,117.619 46.5416,116.953 47.5,116.5 Z"/></g>
<g><path style="opacity:1" fill="#75608e" d="M 133.5,116.5 C 136.499,120.008 136.166,123.175 132.5,126C 129.167,126.667 125.833,126.667 122.5,126C 118.177,122.352 118.51,119.519 123.5,117.5C 127.025,118.994 130.358,118.661 133.5,116.5 Z"/></g>
<g><path style="opacity:1" fill="#dd9c7b" d="M 95.5,128.5 C 94.5081,126.974 93.0081,126.307 91,126.5C 88.3743,126.05 86.8743,127.05 86.5,129.5C 85.1991,128.116 85.1991,126.616 86.5,125C 89.5,124.333 92.5,124.333 95.5,125C 96.7911,126.292 96.7911,127.458 95.5,128.5 Z"/></g>
<g><path style="opacity:1" fill="#44124a" d="M 95.5,128.5 C 93.111,130.369 93.111,132.203 95.5,134C 98.0329,133.389 100.7,132.889 103.5,132.5C 103.411,139.063 100.078,141.563 93.5,140C 92.646,138.978 91.646,138.145 90.5,137.5C 87.4986,139.844 84.1653,140.677 80.5,140C 77.1111,137.344 76.9444,134.844 80,132.5C 81.9538,134.434 84.1204,134.767 86.5,133.5C 87.6256,132.192 87.6256,130.858 86.5,129.5C 86.8743,127.05 88.3743,126.05 91,126.5C 93.0081,126.307 94.5081,126.974 95.5,128.5 Z"/></g>
<g><path style="opacity:1" fill="#f7afc0" d="M 139.5,132.5 C 142.008,134.237 145.008,135.07 148.5,135C 150.323,135.997 151.99,137.164 153.5,138.5C 152.809,144.205 149.476,146.538 143.5,145.5C 137.733,146.231 134.399,143.731 133.5,138C 130.305,137.819 127.305,137.319 124.5,136.5C 130.236,137.445 135.236,136.111 139.5,132.5 Z"/></g>
<g><path style="opacity:1" fill="#f9aec0" d="M 34.5,134.5 C 39.2868,133.97 43.6202,135.137 47.5,138C 48.8333,139.667 48.8333,141.333 47.5,143C 44.1295,145.078 40.4629,145.911 36.5,145.5C 34.6916,145.509 33.0249,145.009 31.5,144C 28.297,139.518 29.297,136.352 34.5,134.5 Z"/></g>
<g><path style="opacity:0.989" fill="#3b0747" d="M 150.5,16.5 C 156.815,16.392 163.148,17.5586 169.5,20C 172.263,23.7598 174.596,27.7598 176.5,32C 176.141,34.2961 175.141,36.1295 173.5,37.5C 172.851,25.4868 166.851,20.8201 155.5,23.5C 147.337,24.5461 140.337,27.8795 134.5,33.5C 131.527,35.1468 128.86,37.1468 126.5,39.5C 121.381,42.9039 116.381,46.5705 111.5,50.5C 108.217,49.673 104.884,49.3396 101.5,49.5C 93.5,49.5 85.5,49.5 77.5,49.5C 73.8183,49.6653 70.1516,49.4986 66.5,49C 59.6752,44.3354 53.0085,39.5021 46.5,34.5C 39.1791,29.1882 31.1791,25.1882 22.5,22.5C 15.9715,21.4364 11.3049,23.7697 8.5,29.5C 7.71003,30.6085 7.21003,31.9419 7,33.5C 6.17001,58.67 6.33668,83.67 7.5,108.5C 7.18054,113.363 7.51388,118.03 8.5,122.5C 8.32232,141.313 16.989,154.146 34.5,161C 70.8036,168.166 107.137,168.333 143.5,161.5C 146.784,160.146 149.784,160.48 152.5,162.5C 153.833,161.833 155.167,161.167 156.5,160.5C 157.386,161.325 157.719,162.325 157.5,163.5C 151.135,166.512 144.468,168.678 137.5,170C 103.778,174.869 70.1111,174.536 36.5,169C 19.5037,164.67 8.33707,154.17 3,137.5C 1.50071,129.399 0.334038,121.399 -0.5,113.5C -0.5,90.1667 -0.5,66.8333 -0.5,43.5C 0.221579,43.9175 0.721579,44.5842 1,45.5C 1.33333,42.1667 1.66667,38.8333 2,35.5C 2.66667,32.8333 3.33333,32.8333 4,35.5C 4.59456,34.1011 4.42789,32.7678 3.5,31.5C 5.5,28.8333 7.5,26.1667 9.5,23.5C 21.2,19.8304 32.2,21.1638 42.5,27.5C 49.1081,33.4741 56.1081,38.9741 63.5,44C 65.2784,44.704 67.1118,45.204 69,45.5C 81.949,45.3728 94.7823,45.3728 107.5,45.5C 109.425,45.5904 110.592,46.5904 111,48.5C 113.088,46.2256 114.588,43.5589 115.5,40.5C 115.376,39.8933 115.043,39.56 114.5,39.5C 125.136,29.84 137.136,22.1734 150.5,16.5 Z"/></g>
<g><path style="opacity:1" fill="#fc8888" d="M 28.5,34.5 C 31.2583,37.678 33.2583,41.3447 34.5,45.5C 33.8826,45.3893 33.3826,45.056 33,44.5C 28.4192,47.6783 23.5859,48.0116 18.5,45.5C 16.3516,46.7585 14.1849,46.7585 12,45.5C 10.0382,46.7615 8.53816,48.4281 7.5,50.5C 7.22562,45.737 7.55896,41.0704 8.5,36.5C 9.53069,35.645 10.6974,34.9783 12,34.5C 17.0582,33.9717 22.0582,34.6384 27,36.5C 28.0299,36.1639 28.5299,35.4972 28.5,34.5 Z"/></g>
<g><path style="opacity:1" fill="#87304f" d="M 22.5,22.5 C 31.1791,25.1882 39.1791,29.1882 46.5,34.5C 46.189,35.4778 45.5223,36.1445 44.5,36.5C 37.3059,35.0263 34.3059,38.0263 35.5,45.5C 35.1667,45.5 34.8333,45.5 34.5,45.5C 33.2583,41.3447 31.2583,37.678 28.5,34.5C 27.0249,30.2165 25.0249,26.2165 22.5,22.5 Z"/></g>
<g><path style="opacity:1" fill="#f99d99" d="M 22.5,22.5 C 25.0249,26.2165 27.0249,30.2165 28.5,34.5C 28.5299,35.4972 28.0299,36.1639 27,36.5C 22.0582,34.6384 17.0582,33.9717 12,34.5C 10.6974,34.9783 9.53069,35.645 8.5,36.5C 8.5,34.1667 8.5,31.8333 8.5,29.5C 11.3049,23.7697 15.9715,21.4364 22.5,22.5 Z"/></g>
</svg>
